<?xml version="1.0" encoding="UTF-8" standalone="no"?>
<!-- Uploaded to: SVG Repo, www.svgrepo.com, Generator: SVG Repo Mixer Tools -->

<svg
   width="800px"
   height="800px"
   viewBox="0 0 32 32"
   version="1.1"
   id="svg7"
   sodipodi:docname="rust_icon.svg"
   inkscape:version="1.4 (86a8ad7, 2024-10-11)"
   xmlns:inkscape="http://www.inkscape.org/namespaces/inkscape"
   xmlns:sodipodi="http://sodipodi.sourceforge.net/DTD/sodipodi-0.dtd"
   xmlns="http://www.w3.org/2000/svg"
   xmlns:svg="http://www.w3.org/2000/svg">
  <sodipodi:namedview
     id="namedview7"
     pagecolor="#505050"
     bordercolor="#eeeeee"
     borderopacity="1"
     inkscape:showpageshadow="0"
     inkscape:pageopacity="0"
     inkscape:pagecheckerboard="0"
     inkscape:deskcolor="#505050"
     inkscape:zoom="1.005"
     inkscape:cx="400"
     inkscape:cy="400"
     inkscape:window-width="1920"
     inkscape:window-height="1009"
     inkscape:window-x="-8"
     inkscape:window-y="-8"
     inkscape:window-maximized="1"
     inkscape:current-layer="svg7" />
  <defs
     id="defs7">
    <radialGradient
       id="a"
       cx="-492.035"
       cy="-883.37"
       r="13.998"
       gradientTransform="matrix(0.98983471,-0.5714981,-0.34289886,-0.59435802,200.14355,-789.84985)"
       gradientUnits="userSpaceOnUse">
      <stop
         offset="0"
         stop-color="#7d7d7d"
         id="stop1" />
      <stop
         offset="0.267"
         stop-color="#7e7c7a"
         id="stop2" />
      <stop
         offset="0.45"
         stop-color="#817871"
         id="stop3" />
      <stop
         offset="0.608"
         stop-color="#867162"
         id="stop4" />
      <stop
         offset="0.753"
         stop-color="#8d684c"
         id="stop5" />
      <stop
         offset="0.886"
         stop-color="#965c30"
         id="stop6" />
      <stop
         offset="1"
         stop-color="#a04f12"
         id="stop7" />
    </radialGradient>
  </defs>
  <title
     id="title7">file_type_rust</title>
  <path
     d="m 14.998735,3.7701296 a 0.95097286,0.95097286 0 1 1 0.950973,0.9509729 v 0 A 0.94982986,0.94982986 0 0 1 14.998735,3.7701296 M 3.6556408,12.381463 a 0.95097286,0.95097286 0 1 1 0.9509729,0.950973 v 0 A 0.95097286,0.95097286 0 0 1 3.6556408,12.381463 m 22.6953332,0.04458 a 0.95097286,0.95097286 0 1 1 0.950973,0.950973 0.94982986,0.94982986 0 0 1 -0.950973,-0.950973 v 0 M 6.4045467,13.729056 A 0.86867713,0.86867713 0 0 0 6.8457433,12.58606 L 6.4239776,11.631658 h 1.6596306 v 7.48091 H 4.7346292 A 11.712282,11.712282 0 0 1 4.3551545,14.64231 Z m 6.9425593,0.184022 v -2.20484 h 3.952481 c 0.204596,0 1.441318,0.235458 1.441318,1.161285 0,0.768093 -0.948687,1.043555 -1.729353,1.043555 z M 7.9510206,25.78538 A 0.95097286,0.95097286 0 1 1 8.9019935,26.736353 0.94982986,0.94982986 0 0 1 7.9510206,25.78538 v 0 m 14.0942864,0.04458 a 0.95097286,0.95097286 0 1 1 0.950973,0.950973 0.95097286,0.95097286 0 0 1 -0.950973,-0.950973 v 0 m 0.29375,-2.156834 a 0.86639114,0.86639114 0 0 0 -1.028697,0.66751 l -0.477772,2.227699 a 11.714568,11.714568 0 0 1 -9.766903,-0.04686 L 10.589056,24.29377 A 0.86753413,0.86753413 0 0 0 9.5603593,23.627403 v 0 L 7.5932628,24.050312 A 11.69628,11.69628 0 0 1 6.5759961,22.851309 h 9.5714509 c 0.108584,0 0.180593,-0.01943 0.180593,-0.1143 v -3.390127 c 0,-0.0983 -0.07201,-0.114299 -0.180593,-0.114299 h -2.800341 v -2.149976 h 3.027797 a 1.9030887,1.9030887 0 0 1 1.861941,1.61391 c 0.120014,0.472058 0.384046,2.008245 0.56464,2.499733 0.17945,0.552067 0.914397,1.653916 1.69392,1.653916 h 4.941173 a 11.70771,11.70771 0 0 1 -1.084704,1.257295 z m 5.314932,-8.939374 a 11.728284,11.728284 0 0 1 0.02515,2.033391 H 26.47785 c -0.120014,0 -0.169163,0.07887 -0.169163,0.196595 v 0.552067 c 0,1.298444 -0.732661,1.581907 -1.371596,1.653916 -0.611503,0.06858 -1.289299,-0.256031 -1.371595,-0.629791 a 4.1330743,4.1330743 0 0 0 -1.909947,-3.209534 c 1.177286,-0.747519 2.400292,-1.85051 2.400292,-3.327262 A 3.7627436,3.7627436 0 0 0 22.217899,8.9136127 5.2109198,5.2109198 0 0 0 19.703308,8.0860834 H 7.2755098 A 11.711139,11.711139 0 0 1 13.828307,4.3873476 l 1.465321,1.5361869 a 0.86639114,0.86639114 0 0 0 1.225292,0.029718 v 0 l 1.639057,-1.5681908 a 11.713425,11.713425 0 0 1 8.018118,5.7149813 l -1.122422,2.534022 a 0.86982013,0.86982013 0 0 0 0.441197,1.142997 z m 2.798055,0.04115 -0.03772,-0.392047 1.15557,-1.077846 a 0.48005841,0.48005841 0 0 0 -0.01486,-0.680083 0.48920238,0.48920238 0 0 0 -0.138303,-0.09258 l -1.472179,-0.552067 -0.1143,-0.381761 0.921255,-1.280156 A 0.48234441,0.48234441 0 0 0 30.60292,9.6542742 0.49148838,0.49148838 0 0 0 30.450901,9.5914094 L 28.892997,9.3376642 28.705546,8.9879074 29.360483,7.5511612 a 0.47891542,0.47891542 0 0 0 -0.269747,-0.62179 0.48691639,0.48691639 0 0 0 -0.166878,-0.033147 l -1.580763,0.054864 -0.256032,-0.301751 0.363473,-1.5396159 a 0.48120141,0.48120141 0 0 0 -0.392048,-0.5566391 0.49720336,0.49720336 0 0 0 -0.164591,0 L 25.353138,4.9131259 25.049101,4.6628097 25.105108,3.0843319 A 0.48120141,0.48120141 0 0 0 24.612477,2.6145605 0.48691639,0.48691639 0 0 0 24.451314,2.6465644 L 23.014568,3.3015012 22.664811,3.1140498 22.411066,1.556146 A 0.48120141,0.48120141 0 0 0 21.839568,1.1926732 0.49148838,0.49148838 0 0 0 21.687549,1.255538 L 20.40625,2.1767929 20.025633,2.0624933 19.473566,0.58459917 a 0.48120141,0.48120141 0 0 0 -0.634363,-0.24574418 0.50520433,0.50520433 0 0 0 -0.13716,0.0914397 L 17.620769,1.5870069 17.228721,1.549288 16.39662,0.20398143 a 0.48120141,0.48120141 0 0 0 -0.786382,0 L 14.778137,1.549288 14.386089,1.5870069 13.308244,0.43029468 a 0.48120141,0.48120141 0 0 0 -0.680083,0.0171449 0.50520433,0.50520433 0 0 0 -0.09144,0.13715954 L 11.980082,2.0556353 11.599465,2.1699349 10.319309,1.255538 A 0.48234441,0.48234441 0 0 0 9.655228,1.4041275 0.49148838,0.49148838 0 0 0 9.5923632,1.556146 L 9.338618,3.1140498 8.9888612,3.3015012 7.5509719,2.6465644 A 0.48120141,0.48120141 0 0 0 6.929182,2.9197405 0.50749032,0.50749032 0 0 0 6.8971781,3.0843319 L 6.9520419,4.6650957 6.6480049,4.9131259 5.108389,4.5519391 a 0.48120141,0.48120141 0 0 0 -0.5566392,0.3920477 0.49720336,0.49720336 0 0 0 0,0.1645914 L 4.9129366,6.6493371 4.6637635,6.9522311 3.0841427,6.8973673 A 0.48234441,0.48234441 0 0 0 2.6463751,7.5523041 L 3.301312,8.9890504 3.1138606,9.3388072 1.5559567,9.5925524 a 0.48005841,0.48005841 0 0 0 -0.3634728,0.5714986 0.49148838,0.49148838 0 0 0 0.062865,0.152018 l 0.921255,1.280156 -0.1142996,0.381761 -1.47789416,0.552067 a 0.48120141,0.48120141 0 0 0 -0.24574419,0.634363 0.47320044,0.47320044 0 0 0 0.0925827,0.138302 l 1.15556915,1.077846 -0.037719,0.392047 -1.3453066,0.832102 a 0.48120141,0.48120141 0 0 0 0,0.786381 l 1.3453066,0.832101 0.037719,0.392048 -1.15556915,1.077845 a 0.48120141,0.48120141 0 0 0 0.0171449,0.680083 0.49834635,0.49834635 0 0 0 0.13601655,0.09144 l 1.4778942,0.552067 0.1142996,0.381761 -0.921255,1.284727 a 0.48120141,0.48120141 0 0 0 0.1497325,0.664081 0.49148838,0.49148838 0 0 0 0.1520185,0.06287 l 1.5579039,0.253745 0.1874514,0.3509 -0.6549369,1.436746 a 0.48234441,0.48234441 0 0 0 0.2743191,0.622933 0.50063235,0.50063235 0 0 0 0.1634485,0.032 l 1.5807638,-0.05486 0.2503161,0.304037 -0.3623298,1.540759 a 0.48005841,0.48005841 0 0 0 0.3897617,0.555496 0.45719849,0.45719849 0 0 0 0.1668775,0 l 1.5373299,-0.364615 0.304037,0.249173 -0.056007,1.579621 a 0.47891542,0.47891542 0 0 0 0.4903454,0.468628 0.47205744,0.47205744 0 0 0 0.1634484,-0.032 l 1.4367463,-0.654937 0.3497568,0.187452 0.2537452,1.556761 a 0.48120141,0.48120141 0 0 0 0.5714978,0.364615 0.46519946,0.46519946 0 0 0 0.152019,-0.06286 l 1.280156,-0.922398 0.38176,0.114299 0.552067,1.476751 a 0.48234441,0.48234441 0 0 0 0.635506,0.244601 0.49834635,0.49834635 0 0 0 0.136017,-0.09144 l 1.077845,-1.155569 0.392048,0.03886 0.832101,1.345307 a 0.48234441,0.48234441 0 0 0 0.672082,0.1143 0.47205744,0.47205744 0 0 0 0.1143,-0.1143 l 0.832101,-1.345307 0.392048,-0.03886 1.077845,1.155569 a 0.48120141,0.48120141 0 0 0 0.680083,-0.01714 0.49834635,0.49834635 0 0 0 0.09144,-0.136017 l 0.552067,-1.476751 0.38176,-0.114299 1.280156,0.922398 a 0.48120141,0.48120141 0 0 0 0.664081,-0.149733 0.49148838,0.49148838 0 0 0 0.06286,-0.152018 l 0.253745,-1.556761 0.349757,-0.187452 1.436746,0.654937 a 0.48120141,0.48120141 0 0 0 0.62179,-0.273176 0.50063235,0.50063235 0 0 0 0.032,-0.163448 l -0.05486,-1.581907 0.302894,-0.249173 1.539616,0.362329 a 0.48120141,0.48120141 0 0 0 0.556639,-0.388618 0.51091931,0.51091931 0 0 0 0,-0.166878 l -0.353186,-1.538473 0.249174,-0.304037 1.580763,0.05486 a 0.48120141,0.48120141 0 0 0 0.468629,-0.492631 0.45719849,0.45719849 0 0 0 -0.032,-0.162306 l -0.654937,-1.436746 0.187451,-0.3509 1.557904,-0.253745 a 0.48120141,0.48120141 0 0 0 0.364616,-0.571498 0.49606036,0.49606036 0 0 0 -0.06401,-0.154305 l -0.921255,-1.280155 0.1143,-0.381761 1.477894,-0.552067 a 0.48005841,0.48005841 0 0 0 0.245744,-0.63322 0.47320044,0.47320044 0 0 0 -0.09258,-0.138303 l -1.15557,-1.077845 0.03772,-0.392048 1.345307,-0.832101 a 0.48120141,0.48120141 0 0 0 0,-0.786381 z"
     style="fill:url(#a);stroke-width:1.143"
     id="path7" />
</svg>
