<?xml version="1.0" encoding="UTF-8" standalone="no"?>
<svg
   viewBox="0 0 512 512"
   version="1.1"
   id="svg8"
   sodipodi:docname="html_icon.svg"
   inkscape:version="1.4 (86a8ad7, 2024-10-11)"
   xmlns:inkscape="http://www.inkscape.org/namespaces/inkscape"
   xmlns:sodipodi="http://sodipodi.sourceforge.net/DTD/sodipodi-0.dtd"
   xmlns="http://www.w3.org/2000/svg"
   xmlns:svg="http://www.w3.org/2000/svg">
  <defs
     id="defs8" />
  <sodipodi:namedview
     id="namedview8"
     pagecolor="#505050"
     bordercolor="#eeeeee"
     borderopacity="1"
     inkscape:showpageshadow="0"
     inkscape:pageopacity="0"
     inkscape:pagecheckerboard="0"
     inkscape:deskcolor="#505050"
     inkscape:zoom="0.78515625"
     inkscape:cx="142.64677"
     inkscape:cy="240.71642"
     inkscape:window-width="1920"
     inkscape:window-height="1009"
     inkscape:window-x="-8"
     inkscape:window-y="-8"
     inkscape:window-maximized="1"
     inkscape:current-layer="svg8" />
  <title
     id="title1">HTML5 Logo</title>
  <g
     id="g8"
     transform="matrix(1.2414879,0,0,1.2414879,-61.820897,-61.966152)">
    <polygon
       fill="#e44d26"
       points="437.367,100.62 404.321,470.819 255.778,512 107.644,470.877 74.633,100.62 "
       id="polygon1"
       transform="translate(0,-49.7085)" />
    <polygon
       fill="#f16529"
       points="404.27,130.894 256,130.894 256,480.523 376.03,447.246 "
       id="polygon2"
       transform="translate(0,-49.7085)" />
    <polygon
       fill="#ebebeb"
       points="191.76,221.716 256,221.716 256,176.305 255.843,176.305 142.132,176.305 143.219,188.488 154.38,313.627 256,313.627 256,268.217 195.91,268.217 "
       id="polygon3"
       transform="translate(0,-49.7085)" />
    <polygon
       fill="#ebebeb"
       points="205.227,372.55 201.994,336.333 177.419,336.333 156.409,336.333 162.771,407.634 255.791,433.457 256,433.399 256,386.153 255.801,386.206 "
       id="polygon4"
       transform="translate(0,-49.7085)" />
    <polygon
       fill="#ffffff"
       points="311.761,313.627 306.49,372.521 255.843,386.191 255.843,433.435 348.937,407.634 349.62,399.962 360.291,280.411 361.399,268.217 349.162,268.217 255.843,268.217 255.843,313.627 "
       id="polygon7"
       transform="translate(0,-49.7085)" />
    <polygon
       fill="#ffffff"
       points="255.843,221.605 255.843,221.716 365.385,221.716 365.385,221.716 365.531,221.716 366.442,211.509 368.511,188.488 369.597,176.305 255.843,176.305 255.843,204.509 "
       id="polygon8"
       transform="translate(0,-49.7085)" />
  </g>
</svg>
