<?xml version="1.0" encoding="UTF-8" standalone="no"?>
<svg
   viewBox="0 0 512 512"
   version="1.1"
   id="svg8"
   sodipodi:docname="html_icon.svg"
   inkscape:version="1.4 (86a8ad7, 2024-10-11)"
   xmlns:inkscape="http://www.inkscape.org/namespaces/inkscape"
   xmlns:sodipodi="http://sodipodi.sourceforge.net/DTD/sodipodi-0.dtd"
   xmlns="http://www.w3.org/2000/svg"
   xmlns:svg="http://www.w3.org/2000/svg">
  <defs
     id="defs8" />
  <sodipodi:namedview
     id="namedview8"
     pagecolor="#505050"
     bordercolor="#eeeeee"
     borderopacity="1"
     inkscape:showpageshadow="0"
     inkscape:pageopacity="0"
     inkscape:pagecheckerboard="0"
     inkscape:deskcolor="#505050"
     inkscape:zoom="0.78515625"
     inkscape:cx="143.9204"
     inkscape:cy="240.0796"
     inkscape:window-width="1920"
     inkscape:window-height="1009"
     inkscape:window-x="-8"
     inkscape:window-y="-8"
     inkscape:window-maximized="1"
     inkscape:current-layer="g8" />
  <title
     id="title1">HTML5 Logo</title>
  <g
     id="g8"
     transform="matrix(1.2414879,0,0,1.2414879,-61.820897,-61.966152)">
    <path
       d="M 74.633699,50.911802 107.64443,421.16907 255.77817,462.29129 404.32095,421.11086 437.36629,50.911802 Z m 67.498711,75.684138 h 113.71026 113.75432 l -1.08551,12.18296 -2.06878,23.02083 -0.91246,10.207 H 365.3855 255.84267 191.75941 l 4.15014,46.50103 h 59.93312 93.31986 12.23645 l -1.10754,12.19398 -10.67111,119.55161 -0.68277,7.67256 L 256,383.68255 v 0.008 l -0.20924,0.0582 -93.01937,-25.82272 -6.36208,-71.30117 h 21.01027 24.57516 l 3.23295,36.21694 50.57408,13.65549 0.0409,-0.011 v -0.003 l 50.64803,-13.67122 5.27026,-58.89323 H 255.84267 154.37987 L 143.2195,138.7789 Z"
       style="fill:#c2c2c2;fill-opacity:1"
       id="path1" />
  </g>
</svg>
