<?xml version="1.0" encoding="UTF-8" standalone="no"?>
<!-- Uploaded to: SVG Repo, www.svgrepo.com, Generator: SVG Repo Mixer Tools -->

<svg
   width="800px"
   height="800px"
   viewBox="0 0 24 24"
   fill="none"
   version="1.1"
   id="svg1"
   sodipodi:docname="image_icon.svg"
   inkscape:version="1.4 (86a8ad7, 2024-10-11)"
   xmlns:inkscape="http://www.inkscape.org/namespaces/inkscape"
   xmlns:sodipodi="http://sodipodi.sourceforge.net/DTD/sodipodi-0.dtd"
   xmlns="http://www.w3.org/2000/svg"
   xmlns:svg="http://www.w3.org/2000/svg">
  <defs
     id="defs1" />
  <sodipodi:namedview
     id="namedview1"
     pagecolor="#505050"
     bordercolor="#eeeeee"
     borderopacity="1"
     inkscape:showpageshadow="0"
     inkscape:pageopacity="0"
     inkscape:pagecheckerboard="0"
     inkscape:deskcolor="#505050"
     inkscape:zoom="0.25125"
     inkscape:cx="-827.8607"
     inkscape:cy="358.20895"
     inkscape:window-width="1920"
     inkscape:window-height="1009"
     inkscape:window-x="-8"
     inkscape:window-y="-8"
     inkscape:window-maximized="1"
     inkscape:current-layer="Media / Image_02" />
  <g
     id="Media / Image_02"
     transform="matrix(1.04775,0,0,1.04775,-0.57299994,-0.57299994)">
    <path
       id="Vector"
       d="m 2.612684,17.0543 c -5.22e-5,-0.05442 -5.22e-5,-0.110519 -5.22e-5,-0.16839 V 7.1144261 c 0,-0.9435464 0,-1.4156691 0.2273726,-1.7760515 C 3.0399969,5.0213657 3.3588963,4.7638196 3.7514239,4.6023038 4.1976577,4.4186757 4.7822509,4.4186757 5.9505714,4.4186757 H 18.049846 c 1.16831,0 1.752204,0 2.198418,0.1836281 0.392495,0.1615158 0.711979,0.4190619 0.91193,0.7360708 0.227174,0.3600285 0.227174,0.8315786 0.227174,1.7732801 v 9.7766983 c 0,0.40855 0,0.728481 -0.01856,0.989194 M 2.612684,17.0543 c 8.031e-4,0.832514 0.013893,1.268356 0.2273204,1.606651 0.1999925,0.316983 0.5188919,0.575423 0.9114195,0.736904 0.4457956,0.183469 1.0296796,0.183469 2.1957159,0.183469 H 18.053392 c 1.166015,0 1.749075,0 2.194872,-0.183469 0.392495,-0.161481 0.711979,-0.419921 0.91193,-0.736904 0.128607,-0.203854 0.184409,-0.44317 0.208608,-0.783404 M 2.612684,17.0543 7.58583,12.368537 7.5873,12.367237 c 0.4410811,-0.415625 0.6619868,-0.623775 0.9240091,-0.69883 0.2301678,-0.06587 0.4814572,-0.06435 0.7104777,0.0041 0.2609793,0.07809 0.4783699,0.288596 0.9131502,0.709949 l 2.786172,2.700131 c 0.402509,0.390101 0.604859,0.586205 0.850599,0.664967 0.216849,0.06941 0.455914,0.07724 0.679542,0.02392 0.254605,-0.06066 0.478756,-0.241675 0.92695,-0.603642 l 0.518391,-0.418657 c 0.45633,-0.368537 0.684548,-0.552679 0.942805,-0.612908 0.226757,-0.05282 0.469264,-0.04145 0.687469,0.03125 0.248452,0.08288 0.449967,0.285732 0.853102,0.692681 l 2.988834,3.017282 m 0,0 0.01856,0.0187 M 15.129122,9.4728918 c -0.576071,0 -1.04304,-0.3771457 -1.04304,-0.8423693 0,-0.4652238 0.466969,-0.8423695 1.04304,-0.8423695 0.576073,0 1.043042,0.3771457 1.043042,0.8423695 0,0.4652236 -0.466969,0.8423693 -1.043042,0.8423693 z"
       stroke="#000000"
       stroke-width="1.8747"
       stroke-linecap="round"
       stroke-linejoin="round"
       style="stroke:#c2c2c2;stroke-opacity:1" />
  </g>
</svg>
