<svg width="214" height="214" viewBox="0 0 214 214" fill="none" xmlns="http://www.w3.org/2000/svg">
<rect width="214" height="214" rx="50" fill="url(#paint0_linear_20_2)"/>
<path d="M148.855 128.272L148.375 117.52L172.471 93.616H185.815L148.855 128.272ZM139.831 144.016V72.976H149.719V144.016H139.831ZM173.815 144.016L154.807 121.84L161.815 115.408L186.487 144.016H173.815Z" fill="white"/>
<path d="M114.744 144.016V93.616H124.632V144.016H114.744ZM119.544 82.48C117.432 82.48 115.8 81.936 114.648 80.848C113.496 79.76 112.92 78.224 112.92 76.24C112.92 74.384 113.496 72.88 114.648 71.728C115.864 70.576 117.496 70 119.544 70C121.656 70 123.288 70.544 124.44 71.632C125.592 72.72 126.168 74.256 126.168 76.24C126.168 78.096 125.56 79.6 124.344 80.752C123.192 81.904 121.592 82.48 119.544 82.48Z" fill="white"/>
<path d="M89.2103 144.016V72.976H99.0982V144.016H89.2103Z" fill="white"/>
<path d="M52.344 144.976C48.696 144.976 45.304 144.496 42.168 143.536C39.096 142.576 36.28 141.136 33.72 139.216C31.224 137.232 28.984 134.8 27 131.92L34.104 123.76C37.24 128.24 40.248 131.344 43.128 133.072C46.008 134.8 49.432 135.664 53.4 135.664C55.832 135.664 58.04 135.28 60.024 134.512C62.008 133.744 63.576 132.688 64.728 131.344C65.88 130 66.456 128.464 66.456 126.736C66.456 125.584 66.264 124.496 65.88 123.472C65.496 122.448 64.888 121.52 64.056 120.688C63.288 119.856 62.264 119.088 60.984 118.384C59.768 117.68 58.328 117.072 56.664 116.56C55 115.984 53.08 115.504 50.904 115.12C47.448 114.416 44.44 113.488 41.88 112.336C39.32 111.184 37.176 109.744 35.448 108.016C33.72 106.288 32.44 104.336 31.608 102.16C30.776 99.92 30.36 97.424 30.36 94.672C30.36 91.984 30.936 89.488 32.088 87.184C33.304 84.88 34.936 82.896 36.984 81.232C39.096 79.504 41.56 78.192 44.376 77.296C47.192 76.336 50.232 75.856 53.496 75.856C56.952 75.856 60.12 76.304 63 77.2C65.88 78.096 68.44 79.44 70.68 81.232C72.92 82.96 74.776 85.104 76.248 87.664L68.952 94.864C67.672 92.752 66.232 90.992 64.632 89.584C63.032 88.112 61.272 87.024 59.352 86.32C57.432 85.552 55.384 85.168 53.208 85.168C50.712 85.168 48.536 85.552 46.68 86.32C44.824 87.088 43.352 88.176 42.264 89.584C41.24 90.928 40.728 92.528 40.728 94.384C40.728 95.728 40.984 96.976 41.496 98.128C42.008 99.216 42.776 100.208 43.8 101.104C44.888 101.936 46.328 102.704 48.12 103.408C49.912 104.048 52.056 104.624 54.552 105.136C58.072 105.904 61.208 106.896 63.96 108.112C66.712 109.264 69.048 110.64 70.968 112.24C72.888 113.84 74.328 115.632 75.288 117.616C76.312 119.6 76.824 121.744 76.824 124.048C76.824 128.336 75.832 132.048 73.848 135.184C71.864 138.32 69.048 140.752 65.4 142.48C61.752 144.144 57.4 144.976 52.344 144.976Z" fill="white"/>
<defs>
<linearGradient id="paint0_linear_20_2" x1="0" y1="0" x2="214" y2="214" gradientUnits="userSpaceOnUse">
<stop offset="0.235577" stop-color="#666CAF"/>
<stop offset="1" stop-color="#139BDA"/>
</linearGradient>
</defs>
</svg>
